<svg xmlns="http://www.w3.org/2000/svg">
    <symbol id="Logo" viewBox="0 0 199 28">
        <path
            fill="#DA1A31"
            d="M130.61,10.24c-1.14-4.19-4.59-8.03-9.22-8.26c-5.1-0.2-10.66,1.21-13.86,6.51 c-4.05,6.54,0.07,16.81,8.11,17.48C125.4,26.87,133.17,20.47,130.61,10.24z"
        />
        <path
            fill="#FFFFFF"
            d="M111.62,15.68l0.15,0.9c2.49-1.18,5.44-2.29,8.84-3.05c0.86-0.19,1.7-0.35,2.52-0.48 c-0.46-0.87-0.77-1.45-1.24-2.33c-0.92,0-2.8,0.61-3.46,0.88C115.4,12.86,114.78,13.38,111.62,15.68z"
        />
        <path
            fill="#DA1A31"
            d="M117.42,14.86c1.37-0.43,2.88-0.82,4.51-1.11c0.49-0.09,0.97-0.16,1.44-0.23c1.17,0.28,2.34,0.57,3.51,0.85 c0.36,0.09,0.34,0.47-0.02,0.57C124.89,15.47,120.58,16.34,117.42,14.86z"
        />
        <path
            fill="#231F20"
            d="M182.96,13.59C182.96,13.59,182.96,13.58,182.96,13.59c-0.01-0.08-0.02-0.16-0.03-0.23 c-0.02-0.12-0.05-0.22-0.11-0.31c-0.05-0.25-0.13-0.49-0.22-0.66c-0.62-1.19-2.02-1.36-3.18-0.96c-2.22,0.77-3.81,2.9-4.08,5.2 c-0.13,1.07,0.01,2.31,0.76,3.14c0.91,1.01,2.32,0.94,3.42,0.28c0.7-0.42,1.32-0.95,1.83-1.56 C182.48,17.14,183.09,15.4,182.96,13.59z M179.44,17.23c-0.3,0.31-1.19,1.3-1.7,1.11c-0.38-0.14-0.34-1.02-0.32-1.32 c0.08-1.2,0.74-2.37,1.71-3.08c0.33-0.25,1.2-0.83,1.63-0.61c0.23,0.12,0.36,0.45,0.45,0.79C181,15.27,180.23,16.42,179.44,17.23 z"
        />
        <path
            fill="#231F20"
            d="M182.96,13.59C182.96,13.59,182.96,13.58,182.96,13.59c-0.01-0.08-0.02-0.16-0.03-0.23 c-0.02-0.12-0.05-0.22-0.11-0.31c-0.38-0.59-1.55-0.28-1.56,0.53c0.02,0.31,0.03,0.62,0.05,0.94c0.06,1.33,0.07,2.66,0.04,3.98 c-0.01,0.42-0.02,0.83-0.04,1.25c-0.06,1.29,1.99,1.3,2.01,0C183.35,17.67,183.23,15.64,182.96,13.59z"
        />
        <path
            fill="#231F20"
            d="M189.47,13.66c0.07-0.93,0.16-1.87,0.15-2.81c-0.02-0.85,0.08-2.13-0.61-2.74c-0.29-0.26-0.76-0.31-1.05,0 c-0.64,0.68-0.5,1.85-0.59,2.74c-0.1,0.94-0.24,1.87-0.31,2.81c-0.15,2.02-0.13,4.04,0.02,6.05c0.06,0.83,0.84,1.43,1.65,1.09 c0.45-0.19,0.72-0.64,0.73-1.09c0,0,0,0,0,0c0-0.01,0-0.02,0-0.04c0-0.06,0-0.11-0.01-0.17 C189.31,17.57,189.32,15.61,189.47,13.66z"
        />
        <path
            fill="#231F20"
            d="M193.71,8.89c-0.57,0.46-0.51,1.88-0.58,2.62c-0.11,1.1-0.15,2.21-0.2,3.31c-0.05,1.16-0.09,2.32-0.14,3.48 c-0.03,0.78-0.21,1.56,0.51,2.09c0.22,0.16,0.57,0.13,0.79,0c0.72-0.44,0.59-1.35,0.63-2.09c0.05-1.19,0.1-2.37,0.15-3.56 c0.05-1.11,0.1-2.22,0.09-3.33c-0.01-0.85,0.2-2.08-0.57-2.61C194.17,8.65,193.9,8.75,193.71,8.89L193.71,8.89z"
        />
        <path
            fill="#231F20"
            d="M199.66,12.33c-0.67-0.25-1.66-0.2-2.54-0.09c-1.55,0.2-3.11,0.68-4.61,1.13c-1.67,0.5-3.31,1.08-4.9,1.81 c-1.27,0.58-3.47,1.37-3.41,3.06c0.01,0.28,0.2,0.61,0.49,0.67c0.36,0.07,0.67,0.16,1.04,0.03c0.38-0.13,0.69-0.43,1.03-0.65 c0.66-0.43,1.36-0.8,2.07-1.13c1.46-0.69,2.99-1.22,4.52-1.69c1.38-0.43,2.8-0.73,4.17-1.19c0.87-0.29,1.8-0.68,2.34-1.15 C200.14,12.87,199.96,12.44,199.66,12.33L199.66,12.33z"
        />
        <path
            fill="#231F20"
            d="M139.31,13.56c0.1-0.95,0.23-1.91,0.24-2.86c0.01-0.87,0.15-2.17-0.52-2.81c-0.29-0.27-0.75-0.34-1.05-0.03 c-0.66,0.67-0.56,1.88-0.68,2.77c-0.13,0.95-0.3,1.9-0.4,2.86c-0.21,2.05-0.26,4.11-0.18,6.18c0.03,0.85,0.79,1.49,1.61,1.16 c0.45-0.18,0.74-0.63,0.76-1.09c0,0,0,0,0,0c0-0.01,0-0.02,0-0.04c0-0.06,0-0.11-0.01-0.17 C139.03,17.53,139.09,15.54,139.31,13.56z"
        />
        <path
            fill="#231F20"
            d="M143.8,9.24c-0.59,0.41-0.57,1.77-0.66,2.47c-0.14,1.04-0.22,2.09-0.3,3.14c-0.08,1.1-0.16,2.2-0.24,3.31 c-0.05,0.74-0.25,1.47,0.45,2c0.21,0.16,0.57,0.14,0.79,0.03c0.74-0.39,0.63-1.26,0.69-1.96c0.09-1.13,0.17-2.25,0.26-3.38 c0.08-1.05,0.16-2.11,0.19-3.16c0.02-0.81,0.27-1.97-0.49-2.5C144.27,9.03,143.99,9.11,143.8,9.24L143.8,9.24z"
        />
        <path
            fill="#231F20"
            d="M149.81,8.51c-0.64-0.26-1.6-0.24-2.45-0.16c-1.51,0.14-3.03,0.54-4.49,0.91c-1.63,0.42-3.23,0.91-4.79,1.54 c-1.24,0.5-3.4,1.18-3.39,2.75c0,0.27,0.17,0.58,0.46,0.64c0.35,0.08,0.65,0.17,1,0.06c0.37-0.11,0.68-0.38,1.01-0.58 c0.65-0.38,1.34-0.7,2.03-1c1.43-0.6,2.92-1.04,4.42-1.44c1.35-0.36,2.73-0.6,4.07-0.98c0.85-0.24,1.76-0.58,2.29-1.01 C150.26,9.02,150.09,8.62,149.81,8.51L149.81,8.51z"
        />
        <path
            fill="#231F20"
            d="M154.39,18.91L154.39,18.91c-0.12-0.11-0.4-0.5-0.4-1.82c0-0.88,0.14-1.83,0.41-2.83 c0.14-0.47,0.15-0.57,0.15-0.66c0-0.83-0.5-1.12-0.97-1.12c-0.37,0-0.68,0.15-0.9,0.45c-0.1,0.13-0.27,0.41-0.56,1.22 c-0.49,1.34-1.07,2.4-1.74,3.13c-0.78,0.86-1.21,1.01-1.38,1.02c-0.03-0.06-0.1-0.24-0.1-0.69c0-0.8,0.21-1.78,0.63-2.92 c0.26-0.68,0.38-1.2,0.38-1.59c0-0.27-0.1-0.52-0.29-0.75c-0.21-0.25-0.5-0.38-0.84-0.38c-0.48,0-0.86,0.25-1.08,0.7l-0.05,0.1 v0.11c0,0.25-0.06,0.81-0.37,2.03c-0.31,1.27-0.47,2.21-0.47,2.88c0,0.88,0.21,1.56,0.61,2.01c0.42,0.47,0.86,0.71,1.32,0.71 c0.67,0,1.37-0.32,2.1-0.96c0.38-0.33,0.75-0.74,1.12-1.23c0.05,0.54,0.15,0.98,0.3,1.34c0.36,0.86,0.88,1.04,1.25,1.04 c0.24,0,0.5-0.08,0.76-0.23c0.44-0.25,0.53-0.56,0.53-0.78C154.83,19.36,154.57,19.09,154.39,18.91z"
        />
        <path
            fill="#231F20"
            d="M173.36,18.19c-0.12,0.01-0.24,0.03-0.35,0.06c0-1.19,0.1-2.4,0.31-3.61c0.09-0.54,0.12-0.9,0.11-1.14 c-0.03-0.42-0.1-0.69-0.25-0.87c-0.18-0.22-0.47-0.32-0.85-0.3l-0.09,0.01c-0.35,0.04-0.64,0.22-0.83,0.53 c-0.14,0.22-0.29,0.61-0.47,1.22c-0.41,1.37-0.93,2.46-1.55,3.23c-0.73,0.91-1.15,1.08-1.32,1.1c-0.03-0.06-0.11-0.23-0.14-0.69 c-0.05-0.8,0.11-1.79,0.46-2.95c0.22-0.69,0.31-1.22,0.29-1.61c-0.02-0.27-0.13-0.51-0.34-0.73c-0.23-0.24-0.52-0.35-0.87-0.33 c-0.48,0.03-0.85,0.3-1.04,0.76l-0.04,0.1l0.01,0.11c0.02,0.25-0.01,0.81-0.24,2.04c-0.24,1.28-0.33,2.23-0.29,2.9 c0.05,0.88,0.3,1.54,0.73,1.97c0.45,0.45,0.91,0.66,1.36,0.63c0.67-0.04,1.36-0.44,2.1-1.23c0.27-0.28,0.53-0.6,0.78-0.95 c-0.02,0.26-0.02,0.47-0.01,0.64c0.03,0.58,0.13,0.95,0.31,1.18c0.15,0.19,0.43,0.41,0.95,0.38c0.07,0,0.15-0.02,0.25-0.06 c-0.03,0.17-0.08,0.39-0.16,0.69c-0.25,0.97-0.26,1.19-0.25,1.32c0.02,0.42,0.32,0.69,0.73,0.67c0.68-0.04,1.19-0.58,1.51-1.59 c0.28-0.87,0.4-1.56,0.37-2.09l-0.08-0.49C174.37,18.5,173.95,18.15,173.36,18.19z"
        />
        <path
            fill="#231F20"
            d="M164.79,19.1c-0.08-0.6-0.5-0.95-1.08-0.92c-0.12,0.01-0.24,0.03-0.35,0.06c0-1.19,0.1-2.4,0.31-3.61 c0.09-0.54,0.12-0.9,0.11-1.14c-0.03-0.42-0.1-0.69-0.25-0.87c-0.18-0.22-0.47-0.32-0.85-0.3l-0.09,0.01 c-0.35,0.04-0.64,0.22-0.83,0.53c-0.14,0.22-0.29,0.61-0.47,1.22c-0.41,1.37-0.93,2.46-1.55,3.23c-0.73,0.91-1.15,1.08-1.32,1.1 c-0.03-0.06-0.11-0.23-0.14-0.69c-0.05-0.8,0.11-1.79,0.46-2.95c0.22-0.69,0.31-1.22,0.29-1.61c-0.02-0.27-0.13-0.51-0.34-0.73 c-0.23-0.24-0.52-0.35-0.87-0.33c-0.48,0.03-0.85,0.3-1.04,0.76l-0.04,0.1l0.01,0.11c0.02,0.25-0.01,0.81-0.24,2.04 c-0.24,1.28-0.33,2.23-0.29,2.9c0.05,0.88,0.3,1.54,0.73,1.97c0.45,0.45,0.91,0.66,1.36,0.63c0.67-0.04,1.36-0.44,2.1-1.23 c0.27-0.28,0.53-0.6,0.78-0.95c-0.02,0.26-0.02,0.47-0.01,0.64c0.03,0.58,0.13,0.95,0.31,1.18c0.15,0.19,0.43,0.41,0.95,0.38 c0.07,0,0.15-0.02,0.25-0.06c-0.03,0.17-0.08,0.39-0.16,0.69c-0.25,0.97-0.26,1.19-0.25,1.32c0.03,0.42,0.32,0.69,0.73,0.67 c0.68-0.04,1.19-0.58,1.51-1.59c0.28-0.87,0.4-1.56,0.37-2.1L164.79,19.1z"
        />
        <path
            d="M33.66,15.3c0.42-0.46,1.15-0.37,1.79-0.55c1.12-0.31,2.88-1.13,2.83-2.56c-0.04-1.25-1.25-1.98-2.66-2.2 c-1,3.4-2.67,6.44-4.26,9.4c-0.48,0.9-0.96,2.22-2.21,2.32c-0.62-0.53-0.41-1.31-0.31-1.86c0.28-1.61,1.03-3.35,1.69-4.74 c0.92-1.97,2.2-3.8,3.49-5.21c-0.58,0.02-0.95,0.1-1.38-0.17c-0.38-1.65,1.36-2,2.55-2.08c2.76-0.17,5.54,1.4,5.47,4.23 c-0.06,2.3-2.53,3.8-4.87,3.99C35.13,15.93,34.12,16.01,33.66,15.3 M74.13,13.26c0.42-0.82,0.7-1.56,1.15-2.57 c0.2-0.45,1.31-2.48,0.25-2.74c-0.02,0-0.06-0.01-0.08,0c-1.79,0.5-3.08,3.94-4.19,5.37c-1.37-0.03-3.04-0.14-2.97,0.86 c0.06,0.82,1.26,0.98,1.95,1.38c-0.26,0.8-1.79,4.01-0.48,4.83c1.37,0.86,2.09-1.15,2.4-2c0.39-1.06,0.68-2.01,1.13-2.81 c1.08-0.08,2.27-0.45,3.16-0.46c-0.24,0.94-0.76,2.25-0.19,3.46c1,0.64,1.75-0.06,2.1-0.71c0.56-1.03,0.64-2.87,1.05-3.7 c0.65-0.39,1.66-0.43,1.81-1.28c-0.37-0.36-0.95,0.01-1.44-0.01c0.13-0.68,0.47-1.39,0.71-2.09c0.23-0.69,0.68-1.54,0.13-2.26 c-1.12,0.19-1.6,1.21-2.07,2c-0.52,0.87-0.95,1.81-1.46,2.65C76.09,13.21,75.19,13.32,74.13,13.26 M46.27,8.22 c-1.22-0.4-3.23,0.56-3.88,1.5c-0.42,0.61-0.56,1.8,0.25,2.02c1.01,0.28,1.78-0.88,2.21-1.35C45.51,9.67,46.09,9.17,46.27,8.22 M93.05,9.94c-0.99-0.26-1.4,0.5-1.98,1.19c-0.47,0.56-0.75,1.12-1.02,1.2c-0.66,0.2-1.7-0.42-2.26-0.26 c-0.19,0.05-0.5,0.31-0.51,0.64c-0.02,0.86,1.02,0.99,1.87,1.3c-0.37,0.81-0.86,1.8-1.12,2.89c-0.24,1.01-0.51,2.49,0.05,3.55 c0.69-0.11,0.85-0.93,1.08-1.44c0.8-1.77,1.54-3.62,2.54-5.14c1.56-0.11,3.17-0.54,4.41-0.85c0.44-0.11,1.07-0.07,1.23-0.56 c-0.32-0.38-0.95-0.25-1.46-0.25c-1.22-0.02-2.53,0.07-3.35,0.05C92.81,11.66,93.65,10.91,93.05,9.94 M60.25,15.74 c0.3-1.21,1.39-1.68,2.64-2c0.34,0.01-0.15,0.36-0.11,0.56c-0.08,0.22-0.2,0.41-0.18,0.72C61.82,15.27,61.28,15.73,60.25,15.74 M53.94,16.82c0.73-0.66,1.32-1.3,2.15-2.08c0.56-0.53,2.06-1.44,1.63-2.57c-0.23-0.61-1.3-0.74-2.06-0.74 c-1.09,0-2.47,0.34-3.58,0.3c-0.39-0.01-0.75-0.33-1.05-0.09c-1.01,2.11,2.18,1.97,3.75,1.8c-1.13,1.23-3.13,1.97-4.12,3.35 c-0.26,0.36-0.59,0.93-0.35,1.53c0.42,0.34,0.9,0.11,1.37,0.09c2.1-0.06,4.51,0.63,6.07-0.11c0.32-0.15,0.52-0.43,0.83-0.64 c1.91,0.61,3.27-0.48,4.39-1.1c0.68,0.91,3.43,0.97,3.66-0.22c-0.44-0.74-1.63-0.32-1.85-1.14c-0.23-0.85,1.22-2.07,0.31-2.98 c-0.35-0.24-0.74,0.13-0.96-0.01c-2.74-0.34-5.6,1.15-6.3,3.18c-0.19,0.54-0.05,1.22,0.06,1.69 C56.72,17.57,55.22,16.99,53.94,16.82 M42.79,12.55c-0.37-0.17-0.53-0.06-0.71,0.16c-1.12,1.36-3.68,3.48-3.45,5.7 c0.08,0.79,0.54,1.8,1.56,1.46c0.3-0.27,0.18-0.62,0.32-0.97C41.33,16.9,43.7,15.49,42.79,12.55 M50.36,13.17 c-0.92-0.33-2.48-0.12-3.85-0.19c-1.23-0.07-2.83-0.51-2.75,0.54c0.09,1.25,2.61,1.12,3.92,1c-0.93,0.86-2.02,1.69-3.07,2.56 c-0.91,0.76-2.58,1.66-2.12,3.37c1.03,0.58,2.24,0,3.6-0.05c2.55-0.09,4.73,0.67,7.16,0.46c0.95-0.08,2.44-0.4,2.36-1.43 c-0.54-0.32-1,0.01-1.51,0.07c-2.49,0.26-4.84-1.13-7.68-0.94c0.73-0.76,1.69-1.52,2.53-2.32C49.7,15.49,50.83,14.57,50.36,13.17 M82.25,17.67c0.33-0.95,0.73-3.14-0.61-3.47c-0.46-0.11-1.08,0.02-1.41,0.31c0,0.5,0.55,0.39,0.55,0.89 c-0.34,1.01-1.78,2.9-0.55,4.03c1.1,1.01,2.91-0.2,3.47-0.62c0.42-0.31,0.79-0.74,1.13-0.8c0.13,1.29,0.63,2.19,1.8,2.35 c0.35-0.38,0.05-0.8,0.05-1.29c0-0.77,0.27-1.66,0.44-2.41c0.18-0.8,0.63-1.67,0.04-2.42c-0.69-0.15-0.99,0.43-1.29,0.79 C84.9,16.21,83.84,17.11,82.25,17.67"
        />
        <path
            fill="#C8102E"
            d="M1.4,17.58c0.02,0.39,0.04,0.68,0.1,0.97c0.03,0.14-0.06,0.45-0.44,0.38c-0.21-0.04-0.42-0.12-0.58-0.26 c-0.17-0.14-0.26-0.35-0.32-0.55c-0.13-0.47-0.42-1.9,0.46-1.88c0.2,0,0.37,0.09,0.49,0.24C1.34,16.79,1.38,17.22,1.4,17.58 M25.49,11.64c0,0-0.85-7.05-6.9-8.96c-3.38-1.07-5.06-0.74-7.13-0.38C9.02,2.73,6.11,3.76,4.01,5.55 c-1.43,1.22-2.88,3.07-3.43,5.39c-0.3,1.26-0.33,2.47-0.1,3.79c0.08,0.48,0.76,0.92,0.77,0.14C1.32,6.2,8.46,4.58,8.71,4.53 C8.81,4.51,8.9,4.5,8.98,4.48c0.11-0.03,0.24-0.05,0.35-0.03c0.06,0.01,0.12,0.13,0.02,0.18c-0.57,0.27-2.79,1.03-4,2.09 C4.11,7.78,2.51,9.51,2,12.5c-0.09,0.51-0.17,3.16,0.08,5.02c0.14,1.07,0.87,2.52,1.36,3.14c1.31,1.67,3.57,3.1,4.8,3.54 c0.78,0.28,1.74,0.36,2.22,0.48c0.17,0.04,0.15,0.25-0.02,0.28c-0.78,0.13-2.67-0.31-4.24-1.08c-1.17-0.58-1.98-1.37-2.77-2.22 c-0.87-0.94-1.33-1.92-1.66-1.85c-0.53,0.11-0.08,1.24,0.15,1.68c0.8,1.5,2.41,2.8,3.21,3.23c2.5,1.37,5.03,1.4,6.18,1.3 c4.92-0.41,7.94-2.78,9.29-4.63c0.78-1.08,2.54-3.37,2.5-6.71c0-0.53,0.04-4.23-1.17-6.16c-0.27-0.44-1.1-2.24-4.23-3.78 c-0.24-0.12-1.31-0.66-2.18-0.68c-0.37-0.01-1.11-0.04-1.04-0.48c0.05-0.31,1.87,0.1,2.06,0.15c1.31,0.36,2.99,1.37,4.16,2.26 c3.62,2.76,3.25,8.61,3.25,8.61c-0.15,6.22-3.79,8.85-6.41,10.41c-0.05,0.03-0.24,0.27-0.18,0.36c0.06,0.09,0.19,0.08,0.31,0.07 c1-0.1,1.98-0.85,2.82-1.5c4.31-3.38,4.53-6.02,4.77-7.02C25.63,15.48,25.65,12.55,25.49,11.64"
        />
        <path
            fill="#FFFFFF"
            d="M18.9,13.31c-0.13-0.05-0.24-0.09-0.33-0.13c-0.33-0.13-1.14-0.35-1.79-0.52c-0.36-0.1-0.73-0.19-0.8-0.22 c-0.07-0.11-0.23-0.79-0.3-1.12c-0.04-0.17-0.07-0.3-0.09-0.36c-0.06-0.21-0.13-0.32-0.34-0.3c0,0-0.01,0-0.02,0 c-0.07,0.01-1.04,0.25-2.62,0.66c-1.06,0.27-2.16,0.55-2.23,0.56c-0.09,0.01-0.14,0.06-0.83,1.14c-0.21,0.32-0.46,0.73-0.5,0.77 c-0.02,0.02-0.17,0.08-0.33,0.15c-0.44,0.2-1.26,0.58-1.96,0.98C6,15.38,4.51,16.32,4.4,16.53c-0.04,0.08-0.04,0.16,0,0.22 c0.05,0.08,0.17,0.13,0.31,0.11c0.03,0,0.06-0.01,0.1-0.02c0.15-0.04,4.85-0.98,7.55-1.42c0.67-0.11,1.53-0.22,2.53-0.33 c2.47-0.26,4.96-0.4,5.11-0.39c0.15,0.02,0.29-0.04,0.39-0.16c0.08-0.09,0.13-0.21,0.12-0.33C20.51,13.98,19.99,13.74,18.9,13.31"
        />
        <path
            fill="#FFFFFF"
            d="M91.13,18.84c-0.09,0.09-0.2,0.13-0.33,0.13c-0.13,0-0.24-0.04-0.33-0.13c-0.09-0.09-0.13-0.2-0.13-0.33 c0-0.14,0.05-0.25,0.14-0.34c0.09-0.08,0.2-0.13,0.32-0.13c0.13,0,0.24,0.05,0.33,0.14c0.09,0.09,0.14,0.2,0.14,0.33 C91.27,18.64,91.23,18.75,91.13,18.84 M90.54,18.24c-0.07,0.08-0.11,0.17-0.11,0.27c0,0.11,0.04,0.2,0.11,0.27 c0.07,0.08,0.16,0.11,0.27,0.11c0.11,0,0.2-0.04,0.27-0.11c0.07-0.08,0.11-0.17,0.11-0.27c0-0.1-0.04-0.19-0.11-0.27 c-0.08-0.08-0.17-0.12-0.27-0.12C90.7,18.12,90.61,18.16,90.54,18.24 M90.61,18.77v-0.51c0.03,0,0.08,0,0.14,0c0.06,0,0.1,0,0.11,0 c0.04,0,0.07,0.01,0.1,0.03c0.05,0.02,0.07,0.07,0.07,0.12c0,0.04-0.01,0.07-0.04,0.09c-0.02,0.02-0.05,0.03-0.09,0.03 c0.03,0.01,0.06,0.02,0.07,0.03c0.03,0.02,0.05,0.06,0.05,0.12v0.05c0,0,0,0.01,0,0.01c0,0,0,0.01,0,0.01l0,0.01H90.9 c0-0.02-0.01-0.04-0.01-0.07c0-0.03,0-0.05-0.01-0.06c-0.01-0.02-0.02-0.03-0.04-0.04c-0.01,0-0.03-0.01-0.05-0.01l-0.03,0h-0.03 v0.18L90.61,18.77L90.61,18.77z M90.85,18.35c-0.02-0.01-0.04-0.01-0.08-0.01h-0.03v0.15h0.05c0.03,0,0.06-0.01,0.07-0.02 c0.02-0.01,0.03-0.03,0.03-0.06C90.89,18.38,90.88,18.36,90.85,18.35"
        />
    </symbol>

    <symbol id="Location" viewBox="0 0 24 24">
        <path
            fill="currentColor"
            d="M12 2C8.13 2 5 5.13 5 9c0 5.25 7 13 7 13s7-7.75 7-13c0-3.87-3.13-7-7-7zm0 9.5c-1.38 0-2.5-1.12-2.5-2.5s1.12-2.5 2.5-2.5 2.5 1.12 2.5 2.5-1.12 2.5-2.5 2.5z"
        />
    </symbol>

    <symbol id="Zones" viewBox="0 0 24 24">
        <path
            fill="currentColor"
            d="M12 8c-2.21 0-4 1.79-4 4s1.79 4 4 4 4-1.79 4-4-1.79-4-4-4zm8.94 3c-.46-4.17-3.77-7.48-7.94-7.94V1h-2v2.06C6.83 3.52 3.52 6.83 3.06 11H1v2h2.06c.46 4.17 3.77 7.48 7.94 7.94V23h2v-2.06c4.17-.46 7.48-3.77 7.94-7.94H23v-2h-2.06zM12 19c-3.87 0-7-3.13-7-7s3.13-7 7-7 7 3.13 7 7-3.13 7-7 7z"
        />
    </symbol>

    <symbol id="PhoneOrder" viewBox="0 0 24 24">
        <path
            fill="currentColor"
            d="M6.62 10.79c1.44 2.83 3.76 5.14 6.59 6.59l2.2-2.2c.27-.27.67-.36 1.02-.24 1.12.37 2.33.57 3.57.57.55 0 1 .45 1 1V20c0 .55-.45 1-1 1-9.39 0-17-7.61-17-17 0-.55.45-1 1-1h3.5c.55 0 1 .45 1 1 0 1.25.2 2.45.57 3.57.11.35.03.74-.25 1.02l-2.2 2.2z"
        />
    </symbol>

    <symbol id="Points" viewBox="0 0 14 14">
        <path
            fill="currentColor"
            fill-rule="evenodd"
            clip-rule="evenodd"
            d="M2.44148 3.57433C2.43357 3.56271 2.42565 3.5511 2.41774 3.53918C2.36265 3.45607 2.31183 3.36999 2.26617 3.28122C2.20257 3.15849 2.149 3.03071 2.10609 2.89934C2.03761 2.69083 1.99683 2.47397 1.98343 2.25533C1.97826 2.17193 1.97643 2.08852 1.97978 2.00541C1.98861 1.79392 2.0297 1.58332 2.10091 1.38345C2.15478 1.23183 2.226 1.08617 2.31396 0.950635C2.45852 0.728419 2.64813 0.535693 2.87 0.386457C3.031 0.27803 3.20752 0.193136 3.39257 0.131475C3.63787 0.049857 3.89443 0.011431 4.15313 0.00160109C4.20152 0.000111704 4.24961 -0.000186173 4.298 0.000111704C4.46874 0.0039841 4.63826 0.0242397 4.80413 0.0638572C4.9073 0.088581 5.00865 0.120156 5.10757 0.158284C5.18274 0.187178 5.25639 0.219647 5.32852 0.25569C5.831 0.506501 6.23639 0.911017 6.56296 1.35515C6.62565 1.44064 6.68591 1.52822 6.74374 1.61698C6.82409 1.74031 6.89987 1.8666 6.9717 1.99469C6.98113 2.01167 6.99057 2.02895 7 2.04593C7.02952 1.99231 7.05965 1.93869 7.0907 1.88597C7.1543 1.77665 7.22096 1.66911 7.29126 1.56396C7.35 1.47549 7.41117 1.38881 7.47539 1.30392C7.83513 0.826718 8.29226 0.39867 8.86017 0.170795C8.95817 0.131773 9.05861 0.0987088 9.16117 0.0724956C9.32613 0.0301972 9.49443 0.00755861 9.66487 0.00100533C9.7017 0.000111704 9.73852 -0.000186173 9.77535 0.000111704C10.0365 0.00428197 10.2964 0.0364526 10.5463 0.112113C10.7441 0.171986 10.9334 0.257775 11.1057 0.370074C11.3233 0.512161 11.5113 0.695653 11.6574 0.908039C11.7588 1.05549 11.8397 1.21574 11.8991 1.38345C11.9657 1.57111 12.0062 1.76771 12.0181 1.9661C12.0239 2.06231 12.0227 2.15882 12.0166 2.25533C12.0044 2.4561 11.9688 2.65598 11.91 2.849C11.8696 2.98156 11.8181 3.11113 11.7567 3.23594C11.7125 3.3259 11.6629 3.41348 11.609 3.49807C11.5926 3.52369 11.5756 3.54931 11.5585 3.57433H13.2391C13.4409 3.57433 13.6345 3.65267 13.7772 3.79237C13.92 3.93208 14 4.12153 14 4.31902C14 5.07622 14 6.24271 14 6.99991C14 7.1974 13.92 7.38685 13.7772 7.52655C13.6345 7.66626 13.4409 7.7446 13.2391 7.7446H12.7826V13.2553C12.7826 13.4528 12.6983 13.6423 12.548 13.782C12.3979 13.9217 12.194 14 11.9816 14C9.77383 14 4.22617 14 2.01843 14C1.806 14 1.60209 13.9217 1.45204 13.782C1.3017 13.6423 1.21739 13.4528 1.21739 13.2553V7.7446H0.76087C0.559087 7.7446 0.365522 7.66626 0.222783 7.52655C0.0800435 7.38685 0 7.1974 0 6.99991C0 6.24271 0 5.07622 0 4.31902C0 4.12153 0.0800435 3.93208 0.222783 3.79237C0.365522 3.65267 0.559087 3.57433 0.76087 3.57433H2.44148ZM2.73913 7.7446V12.5106H6.23913V7.7446H2.73913ZM7.76087 7.7446V12.5106H11.2609V7.7446H7.76087ZM6.24126 6.25522V5.06371H1.52174V6.25522H6.24126ZM12.4783 5.06371H7.75874V6.25522H12.4783V5.06371ZM6.04587 3.57433C5.99626 3.45131 5.94391 3.32918 5.88852 3.20854C5.73178 2.86598 5.55191 2.53027 5.32761 2.22495C5.22809 2.08971 5.11943 1.96014 4.99709 1.84397C4.90335 1.7552 4.80139 1.67358 4.68817 1.60954C4.59383 1.55652 4.49126 1.516 4.38352 1.49873C4.32387 1.48949 4.26422 1.488 4.20426 1.49009C4.15435 1.49188 4.10474 1.49575 4.05543 1.5026C3.90874 1.52286 3.75778 1.57081 3.6543 1.67924C3.62691 1.70754 3.60378 1.73941 3.584 1.77307C3.56087 1.81269 3.54291 1.85529 3.52952 1.89907C3.50791 1.96878 3.49878 2.04056 3.5003 2.11354C3.50183 2.20291 3.51339 2.29257 3.53591 2.37925C3.54717 2.42304 3.56148 2.46593 3.57791 2.50793C3.69265 2.79628 3.92396 3.02564 4.17565 3.20496C4.36039 3.33633 4.56126 3.44535 4.76913 3.53739C4.79774 3.5499 4.82635 3.56241 4.85526 3.57433H6.04587ZM9.14383 3.57433C9.28352 3.51654 9.42017 3.45101 9.55165 3.37714C9.69957 3.29403 9.8417 3.1999 9.97165 3.09147C10.1917 2.90798 10.3801 2.67772 10.458 2.40129C10.482 2.3161 10.4954 2.22823 10.4991 2.13976C10.5 2.11116 10.5006 2.08256 10.4988 2.05397C10.4954 1.99678 10.4842 1.94018 10.4662 1.88567C10.4507 1.83831 10.4294 1.79243 10.402 1.75043C10.3819 1.71945 10.3585 1.69086 10.332 1.66524C10.2136 1.55175 10.0426 1.50975 9.88248 1.49545C9.81035 1.4889 9.7367 1.48592 9.66457 1.49277C9.59943 1.49903 9.53522 1.51362 9.47344 1.53537C9.37817 1.56903 9.2893 1.61847 9.20713 1.67567C9.09117 1.75669 8.98739 1.8532 8.89213 1.95656C8.85409 1.99797 8.81726 2.04056 8.78165 2.08405C8.73417 2.14184 8.68913 2.20142 8.64561 2.26189C8.40426 2.59878 8.21374 2.96994 8.04909 3.34794C8.01652 3.42301 7.98487 3.49837 7.95413 3.57433H9.14383Z"
        />
    </symbol>

    <symbol id="Login" viewBox="0 0 16 16">
        <path
            fill="currentColor"
            d="M1.30469 9C0.752403 9 0.304688 8.55228 0.304687 8C0.304687 7.44772 0.752403 7 1.30469 7L9.69855 7C10.2508 7 10.6985 7.44772 10.6985 8C10.6985 8.55228 10.2508 9 9.69855 9L1.30469 9Z"
        />
        <path
            fill="currentColor"
            d="M7.29289 6.27232C6.90237 5.8818 6.90237 5.24863 7.29289 4.85811C7.68342 4.46758 8.31658 4.46758 8.70711 4.85811L11.1419 7.29289C11.5324 7.68342 11.5324 8.31658 11.1419 8.70711L8.70711 11.1419C8.31658 11.5324 7.68342 11.5324 7.29289 11.1419C6.90237 10.7514 6.90237 10.1182 7.29289 9.72767L9.02057 8L7.29289 6.27232Z"
        />
        <path
            fill="currentColor"
            d="M3.58818 4.39736C3.2386 4.82493 2.6086 4.88815 2.18103 4.53857C1.75347 4.18899 1.69025 3.55899 2.03982 3.13142C3.49176 1.35558 5.6609 0.304169 8.00007 0.304169C12.2502 0.304169 15.6957 3.74971 15.6957 7.99982C15.6957 12.2499 12.2502 15.6955 8.00007 15.6955C5.60956 15.6955 3.39802 14.5975 1.9485 12.7551C1.60701 12.3211 1.68203 11.6924 2.11608 11.3509C2.55013 11.0094 3.17883 11.0844 3.52033 11.5185C4.59455 12.8838 6.22939 13.6955 8.00007 13.6955C11.1456 13.6955 13.6957 11.1454 13.6957 7.99982C13.6957 4.85428 11.1456 2.30417 8.00007 2.30417C6.26746 2.30417 4.6642 3.08129 3.58818 4.39736Z"
        />
    </symbol>

    <symbol id="Cart" viewBox="0 0 24 24">
        <path
            fill="currentColor"
            d="M17.21 9l-4.38-6.56c-.19-.28-.51-.42-.83-.42-.32 0-.64.14-.83.43L6.79 9H2c-.55 0-1 .45-1 1 0 .09.01.18.04.27l2.54 9.27c.23.84 1 1.46 1.92 1.46h13c.92 0 1.69-.62 1.93-1.46l2.54-9.27L23 10c0-.55-.45-1-1-1h-4.79zM9 9l3-4.4L15 9H9zm3 8c-1.1 0-2-.9-2-2s.9-2 2-2 2 .9 2 2-.9 2-2 2z"
        />
    </symbol>

    <symbol id="Close" viewBox="0 0 24 24">
        <path
            fill="currentColor"
            d="M19 6.41L17.59 5 12 10.59 6.41 5 5 6.41 10.59 12 5 17.59 6.41 19 12 13.41 17.59 19 19 17.59 13.41 12z"
        />
    </symbol>

    <symbol id="Expand" viewBox="0 0 24 24">
        <path fill="currentColor" d="M16.59 8.59L12 13.17 7.41 8.59 6 10l6 6 6-6z" />
    </symbol>
</svg>
