<svg xmlns="http://www.w3.org/2000/svg">

    <symbol id="ratingStar" viewBox="0 0 16 16">
        <path d="M8.451 1.49a1 1 0 00-.902 0c-.245.123-.378.359-.461.528-.09.182-.185.427-.296.712l-.928 2.39a3.374 3.374 0 01-.07.173v.002H5.79c-.036.006-.086.01-.184.02l-2.504.214c-.272.024-.51.044-.695.077-.176.032-.418.09-.6.274a1 1 0 00-.28.826c.03.256.186.45.307.583.126.139.302.3.503.485l1.987 1.823.125.118.002.002v.003c-.006.033-.016.079-.036.168l-.592 2.66a9.167 9.167 0 00-.145.73c-.024.184-.042.445.087.68a1 1 0 00.733.508c.265.038.504-.072.667-.16a9.15 9.15 0 00.632-.392l2.036-1.332c.086-.056.13-.085.164-.104L8 12.476l.003.002c.033.019.078.048.164.104l2.036 1.332c.246.161.458.3.632.393.163.087.401.197.667.159a1 1 0 00.733-.508c.13-.235.11-.496.087-.68a9.199 9.199 0 00-.145-.73l-.592-2.66c-.02-.09-.03-.135-.035-.168v-.003l.001-.002.125-.118 1.987-1.823c.201-.185.377-.346.503-.485.12-.133.276-.327.308-.583a1 1 0 00-.281-.826c-.182-.183-.424-.242-.6-.274-.185-.033-.423-.053-.695-.077l-2.504-.215a3.372 3.372 0 01-.184-.018h-.003l-.002-.003a3.421 3.421 0 01-.069-.172l-.928-2.39a9.644 9.644 0 00-.296-.713c-.083-.17-.216-.405-.46-.529z" />
    </symbol>

    <symbol id="coin" viewBox="0 0 200 200">
        <rect fill="transparent" x="2.5" y="2.5" width="195" height="195" rx="97.5" stroke-width="10"/>
        <path fill="black" d="M57.6251 150C57.6251 135.86 57.6251 121.72 57.6251 107.58C57.6251 93.44 57.6251 79.37 57.6251 65.37C57.6251 60.61 58.4651 57.46 60.1451 55.92C61.9651 54.38 64.9051 53.54 68.9651 53.4C74.4251 53.26 80.4451 53.19 87.0251 53.19C93.7451 53.19 100.395 53.19 106.975 53.19C113.695 53.19 119.575 53.33 124.615 53.61C130.355 53.89 135.185 55.08 139.105 57.18C143.165 59.14 146.175 62.15 148.135 66.21C150.235 70.13 151.285 75.17 151.285 81.33C151.285 88.33 150.025 94.14 147.505 98.76C145.125 103.38 141.695 106.74 137.215 108.84C132.875 110.94 127.625 111.99 121.465 111.99C114.465 111.99 107.255 111.99 99.8351 111.99C92.5551 111.99 85.2751 111.99 77.9951 111.99C77.9951 109.61 77.9951 107.79 77.9951 106.53C78.1351 105.27 78.4151 104.36 78.8351 103.8C79.3951 103.24 80.3051 102.96 81.5651 102.96C83.8051 102.96 86.8851 102.96 90.8051 102.96C94.8651 102.96 99.1351 102.96 103.615 102.96C108.095 102.96 112.155 102.96 115.795 102.96C119.155 102.96 122.235 102.33 125.035 101.07C127.975 99.81 130.285 97.57 131.965 94.35C133.785 91.13 134.695 86.72 134.695 81.12C134.695 75.66 133.575 71.39 131.335 68.31C129.095 65.09 125.385 63.34 120.205 63.06C115.865 62.64 111.035 62.43 105.715 62.43C100.395 62.29 95.3551 62.29 90.5951 62.43C85.9751 62.43 82.0551 62.5 78.8351 62.64C78.1351 62.64 77.0851 62.99 75.6851 63.69C74.4251 64.25 73.7951 65.58 73.7951 67.68C73.7951 81.4 73.7951 95.12 73.7951 108.84C73.7951 122.42 73.7951 136.14 73.7951 150H57.6251Z"/>
        <path fill="black" d="M80 35.5C80 31.3579 83.3579 28 87.5 28V28C91.6421 28 95 31.3579 95 35.5V48H80V35.5Z"/>
        <path fill="black" d="M80 153H95V165.5C95 169.642 91.6421 173 87.5 173V173C83.3579 173 80 169.642 80 165.5V153Z"/>
        <path fill="black" d="M105 35.5C105 31.3579 108.358 28 112.5 28V28C116.642 28 120 31.3579 120 35.5V48H105V35.5Z"/>
        <path fill="black" d="M105 153H120V165.5C120 169.642 116.642 173 112.5 173V173C108.358 173 105 169.642 105 165.5V153Z"/>
    </symbol>

    <symbol id="actions" viewBox="0 0 511.999 511.999">
        <path d="M361.079,110.717c3.076-4.802,1.674-11.19-3.128-14.264c-30.42-19.474-65.673-29.769-101.95-29.769 c-104.388,0-189.317,84.927-189.317,189.317s84.928,189.317,189.317,189.317s189.317-84.927,189.315-189.316 c0-42.677-13.861-82.965-40.087-116.509c-3.51-4.491-10-5.286-14.494-1.775c-4.494,3.512-5.288,10.001-1.775,14.495 c23.358,29.876,35.704,65.765,35.704,103.787c0,93.002-75.662,168.664-168.664,168.664S87.337,349.001,87.337,255.999 S162.999,87.336,256.001,87.336c32.323,0,63.725,9.167,90.814,26.51C351.613,116.92,358.003,115.52,361.079,110.717z" />
        <path d="M500.389,255.999c0-11.871,2.872-25.02,5.649-37.735c4.878-22.338,9.922-45.437,1.246-66.359 c-9.045-21.812-29.357-34.694-49.002-47.151c-11.117-7.051-21.618-13.709-29.474-21.566 c-7.855-7.856-14.515-18.356-21.564-29.474c-12.458-19.643-25.34-39.956-47.15-49.001c-20.924-8.674-44.021-3.631-66.36,1.247 c-12.715,2.777-25.863,5.648-37.734,5.648c-11.871,0-25.019-2.871-37.734-5.648c-22.337-4.878-45.437-9.922-66.36-1.247 c-21.812,9.044-34.692,29.357-47.15,49.001c-7.049,11.117-13.709,21.618-21.564,29.474c-7.856,7.855-18.358,14.515-29.474,21.564 C34.073,117.21,13.76,130.093,4.715,151.905c-8.675,20.921-3.632,44.019,1.246,66.357c2.777,12.715,5.649,25.864,5.649,37.735 c0,11.871-2.872,25.02-5.649,37.735c-4.878,22.338-9.922,45.437-1.246,66.359c9.046,21.813,29.359,34.695,49.003,47.153 l3.971,2.524c4.808,3.066,11.192,1.656,14.259-3.152c3.069-4.808,1.658-11.192-3.15-14.26l-4.019-2.554 c-17.713-11.232-34.443-21.842-40.987-37.621c-6.192-14.936-2.043-33.931,2.348-54.041c3.01-13.786,6.123-28.042,6.123-42.143 c0-14.1-3.112-28.356-6.123-42.143c-4.391-20.11-8.539-39.105-2.348-54.04c6.544-15.78,23.274-26.39,40.986-37.622 c11.577-7.34,23.545-14.932,33.017-24.402c9.47-9.47,17.062-21.44,24.403-33.017c11.231-17.712,21.841-34.44,37.62-40.983 c14.935-6.194,33.931-2.046,54.043,2.346c13.785,3.01,28.041,6.123,42.14,6.123c14.099,0,28.353-3.112,42.14-6.123 c20.112-4.392,39.109-8.541,54.043-2.346c15.779,6.543,26.387,23.271,37.62,40.983c7.341,11.577,14.933,23.547,24.403,33.017 c9.47,9.47,21.442,17.062,33.017,24.403c17.713,11.232,34.442,21.842,40.986,37.621c6.192,14.936,2.043,33.931-2.347,54.041 c-3.01,13.786-6.123,28.042-6.123,42.143s3.112,28.356,6.123,42.143c4.391,20.11,8.539,39.105,2.347,54.04 c-6.544,15.78-23.274,26.39-40.986,37.622c-11.577,7.34-23.545,14.932-33.017,24.402c-9.47,9.47-17.062,21.44-24.403,33.017 c-11.231,17.712-21.841,34.44-37.62,40.983c-14.935,6.193-33.931,2.046-54.043-2.346c-13.785-3.01-28.041-6.123-42.14-6.123 c-14.099,0-28.353,3.112-42.14,6.123c-20.112,4.392-39.105,8.541-54.043,2.348c-15.779-6.543-26.387-23.273-37.62-40.983 c-2.942-4.639-5.984-9.434-9.124-14.031c-3.219-4.709-9.646-5.916-14.352-2.699c-4.709,3.218-5.918,9.643-2.7,14.352 c2.942,4.304,5.757,8.74,8.735,13.438c12.458,19.643,25.339,39.956,47.15,49.001c8.271,3.428,16.877,4.714,25.645,4.714 c13.416,0,27.206-3.011,40.715-5.963c12.715-2.777,25.863-5.648,37.734-5.648c11.871,0,25.019,2.871,37.734,5.648 c22.338,4.878,45.436,9.922,66.36,1.247c21.812-9.045,34.692-29.357,47.15-49.001c7.049-11.117,13.709-21.618,21.564-29.474 c7.856-7.855,18.357-14.515,29.474-21.564c19.645-12.458,39.957-25.341,49.002-47.153c8.675-20.921,3.632-44.019-1.246-66.357 C503.261,281.019,500.389,267.87,500.389,255.999z" />
        <path fill="black" d="M166.087,345.913c2.017,2.017,4.661,3.025,7.303,3.025c2.642,0,5.286-1.009,7.301-3.025l165.222-165.222 c4.033-4.031,4.033-10.57,0-14.603s-10.57-4.033-14.604,0L166.087,331.31C162.055,335.341,162.055,341.88,166.087,345.913z" />
        <path fill="black" d="M200.927,238.79c20.877,0,37.863-16.985,37.863-37.863c0-20.878-16.986-37.863-37.863-37.863 s-37.863,16.985-37.863,37.863C163.064,221.805,180.05,238.79,200.927,238.79z M200.927,183.716 c9.489,0,17.211,7.72,17.211,17.211c0,9.491-7.72,17.211-17.211,17.211c-9.491,0-17.211-7.72-17.211-17.211 C183.717,191.436,191.437,183.716,200.927,183.716z" />
        <path fill="black" d="M311.075,348.938c20.877,0,37.863-16.985,37.863-37.863c0-20.879-16.986-37.863-37.863-37.863 s-37.863,16.985-37.863,37.863C273.212,331.953,290.198,348.938,311.075,348.938z M311.075,293.864 c9.489,0,17.211,7.72,17.211,17.211c0,9.491-7.72,17.211-17.211,17.211c-9.491,0-17.211-7.72-17.211-17.211 C293.864,301.584,301.584,293.864,311.075,293.864z"/>
    </symbol>

    <symbol id="profile" viewBox="0 0 489.946 489.946">
        <path d="M334.457,380.978c-56.519,26.61-122.448,26.61-178.967,0c-31.454,25.86-51.517,65.07-51.517,108.968h282 C385.973,446.048,365.911,406.838,334.457,380.978z" />
        <path d="M244.973,381c105.21,0,190.5-85.289,190.5-190.5c0-105.21-85.29-190.5-190.5-190.5s-190.5,85.29-190.5,190.5 C54.473,295.711,139.763,381,244.973,381z M74.728,181.21c85.848,16.661,171.467-10.333,231.766-66.733 c19.949,47.023,57.801,85.53,106.374,105.857C398.758,300.274,328.958,361,244.973,361c-94.164,0-170.5-76.335-170.5-170.5 C74.473,187.383,74.562,184.287,74.728,181.21z" />
        <circle fill="black" cx="167.841" cy="213.466" r="20.132" />
        <circle fill="black" cx="322.105" cy="213.466" r="20.132" />
        <path fill="black" d="M244.973,327.446c18.023,0,34.246-7.589,41.331-19.335c2.852-4.729,1.33-10.875-3.398-13.728 c-4.73-2.852-10.876-1.332-13.729,3.398c-2.807,4.655-11.579,9.665-24.204,9.665s-21.397-5.01-24.204-9.665 c-2.853-4.729-8.997-6.253-13.729-3.398c-4.728,2.853-6.25,8.999-3.398,13.728C210.727,319.857,226.95,327.446,244.973,327.446z" />
    </symbol>
</svg>


